<mxfile host="app.diagrams.net" agent="Mozilla/5.0 (Macintosh; Intel Mac OS X 10.15; rv:133.0) Gecko/20100101 Firefox/133.0" version="26.0.3">
  <diagram name="Page-1" id="pLOy6qona4D3iMZFCQ9j">
    <mxGraphModel dx="1234" dy="1122" grid="1" gridSize="10" guides="1" tooltips="1" connect="1" arrows="1" fold="1" page="1" pageScale="1" pageWidth="850" pageHeight="1100" math="0" shadow="0">
      <root>
        <mxCell id="0" />
        <mxCell id="1" parent="0" />
        <mxCell id="9fVdIQde4dR6UrEkKTvp-8" value="" style="rounded=0;whiteSpace=wrap;html=1;" vertex="1" parent="1">
          <mxGeometry x="280" y="420" width="370" height="120" as="geometry" />
        </mxCell>
        <mxCell id="9fVdIQde4dR6UrEkKTvp-1" value="Queue" style="outlineConnect=0;dashed=0;verticalLabelPosition=bottom;verticalAlign=top;align=center;html=1;shape=mxgraph.aws3.queue;fillColor=#D9A741;gradientColor=none;" vertex="1" parent="1">
          <mxGeometry x="420" y="450" width="70" height="50" as="geometry" />
        </mxCell>
        <mxCell id="9fVdIQde4dR6UrEkKTvp-2" value="Requests" style="aspect=fixed;sketch=0;html=1;dashed=0;whitespace=wrap;verticalLabelPosition=bottom;verticalAlign=top;fillColor=#2875E2;strokeColor=#ffffff;points=[[0.005,0.63,0],[0.1,0.2,0],[0.9,0.2,0],[0.5,0,0],[0.995,0.63,0],[0.72,0.99,0],[0.5,1,0],[0.28,0.99,0]];shape=mxgraph.kubernetes.icon2;kubernetesLabel=1;prIcon=api" vertex="1" parent="1">
          <mxGeometry x="300" y="444" width="50" height="50" as="geometry" />
        </mxCell>
        <mxCell id="9fVdIQde4dR6UrEkKTvp-3" value="" style="points=[];aspect=fixed;html=1;align=center;shadow=0;dashed=0;fillColor=#FF6A00;strokeColor=none;shape=mxgraph.alibaba_cloud.ecs_elastic_compute_service;" vertex="1" parent="1">
          <mxGeometry x="560" y="440" width="80" height="70" as="geometry" />
        </mxCell>
        <mxCell id="9fVdIQde4dR6UrEkKTvp-4" value="" style="endArrow=classic;html=1;rounded=0;exitX=0.995;exitY=0.63;exitDx=0;exitDy=0;exitPerimeter=0;entryX=0;entryY=0.5;entryDx=0;entryDy=0;entryPerimeter=0;" edge="1" parent="1" source="9fVdIQde4dR6UrEkKTvp-2" target="9fVdIQde4dR6UrEkKTvp-1">
          <mxGeometry width="50" height="50" relative="1" as="geometry">
            <mxPoint x="370" y="460" as="sourcePoint" />
            <mxPoint x="420" y="480" as="targetPoint" />
          </mxGeometry>
        </mxCell>
        <mxCell id="9fVdIQde4dR6UrEkKTvp-5" value="" style="endArrow=classic;html=1;rounded=0;" edge="1" parent="1" source="9fVdIQde4dR6UrEkKTvp-1" target="9fVdIQde4dR6UrEkKTvp-3">
          <mxGeometry width="50" height="50" relative="1" as="geometry">
            <mxPoint x="500" y="470" as="sourcePoint" />
            <mxPoint x="610" y="410" as="targetPoint" />
          </mxGeometry>
        </mxCell>
        <mxCell id="9fVdIQde4dR6UrEkKTvp-9" value="Processing" style="text;html=1;align=center;verticalAlign=middle;whiteSpace=wrap;rounded=0;" vertex="1" parent="1">
          <mxGeometry x="570" y="510" width="60" height="30" as="geometry" />
        </mxCell>
      </root>
    </mxGraphModel>
  </diagram>
</mxfile>
